# Blender v2.79 (sub 0) OBJ File: ''
# www.blender.org
mtllib testobj.mtl
o Icosphere
v 2.031941 0.770271 -0.600402
v 2.755549 1.323051 -0.074676
v 1.755553 1.323051 0.250248
v 1.137515 1.323055 -0.600402
v 1.755553 1.323051 -1.451051
v 2.755549 1.323051 -1.126127
v 2.308329 2.217491 0.250248
v 1.308334 2.217490 -0.074676
v 1.308334 2.217490 -1.126127
v 2.308329 2.217491 -1.451051
v 2.926368 2.217487 -0.600402
v 2.031941 2.770271 -0.600402
v 1.869486 0.919617 -0.100406
v 2.457264 0.919617 -0.291390
v 2.294810 1.244533 0.208610
v 2.882589 1.244535 -0.600402
v 2.457264 0.919617 -0.909413
v 1.506212 0.919619 -0.600402
v 1.343752 1.244535 -0.100405
v 1.869486 0.919617 -1.100397
v 1.343752 1.244535 -1.100399
v 2.294810 1.244533 -1.409413
v 2.982999 1.770271 -0.291389
v 2.982999 1.770271 -0.909414
v 2.031941 1.770271 0.399598
v 2.619727 1.770271 0.208615
v 1.080884 1.770271 -0.291389
v 1.444156 1.770271 0.208615
v 1.444156 1.770271 -1.409418
v 1.080884 1.770271 -0.909414
v 2.619727 1.770271 -1.409418
v 2.031941 1.770271 -1.600402
v 2.720131 2.296007 -0.100405
v 1.769073 2.296009 0.208610
v 1.181293 2.296007 -0.600402
v 1.769073 2.296009 -1.409413
v 2.720131 2.296007 -1.100399
v 2.194397 2.620925 -0.100406
v 2.557671 2.620923 -0.600402
v 1.606619 2.620925 -0.291390
v 1.606619 2.620925 -0.909413
v 2.194397 2.620925 -1.100397
v 2.308329 2.217491 0.250248
v 2.720131 2.296007 -0.100405
v 2.194397 2.620925 -0.100406
v 2.308329 2.217491 -1.451051
v 1.769073 2.296009 -1.409413
v 2.194397 2.620925 -1.100397
v 2.720131 2.296007 -1.100399
v 2.308329 2.217491 -1.451051
v 2.194397 2.620925 -1.100397
v 1.769073 2.296009 0.208610
v 2.308329 2.217491 0.250248
v 2.194397 2.620925 -0.100406
v 2.720131 2.296007 -0.100405
v 2.308329 2.217491 0.250248
v 2.194397 2.620925 -0.100406
v 1.769073 2.296009 -1.409413
v 2.308329 2.217491 -1.451051
v 2.194397 2.620925 -1.100397
v 2.308329 2.217491 -1.451051
v 2.720131 2.296007 -1.100399
v 2.194397 2.620925 -1.100397
v 2.308329 2.217491 0.250248
v 1.769073 2.296009 0.208610
v 2.194397 2.620925 -0.100406
v 1.769073 2.296009 0.208610
v 2.308329 2.217491 0.250248
v 2.194397 2.620925 -0.100406
v 2.720131 2.296007 -1.100399
v 2.308329 2.217491 -1.451051
v 2.194397 2.620925 -1.100397
v 2.308329 2.217491 -1.451051
v 1.769073 2.296009 -1.409413
v 2.194397 2.620925 -1.100397
v 2.308329 2.217491 0.250248
v 2.720131 2.296007 -0.100405
v 2.194397 2.620925 -0.100406
vt 0.550270 0.204426
vt 0.424132 0.204424
vt 0.511290 0.324390
vt 0.113300 0.057429
vt 0.207177 0.000329
vt 0.231591 0.105107
vt 0.652318 0.278570
vt 0.652318 0.130284
vt 0.511292 0.084461
vt 0.103753 0.176283
vt 0.435094 0.432713
vt 0.563708 0.409180
vt 0.505267 0.537532
vt 0.662520 0.249257
vt 0.756396 0.326289
vt 0.780811 0.194323
vt 0.435094 0.690074
vt 0.335669 0.674842
vt 0.364332 0.800023
vt 0.674865 0.681346
vt 0.563708 0.666541
vt 0.646203 0.789763
vt 0.000329 0.115491
vt 0.364332 0.542662
vt 0.652975 0.119182
vt 0.505267 0.794893
vt 0.204380 0.760337
vt 0.204380 0.887355
vt 0.103035 0.823158
vt 0.246432 0.420945
vt 0.314401 0.531490
vt 0.194435 0.492513
vt 0.884892 0.034636
vt 0.989277 0.107913
vt 0.989277 0.000329
vt 0.113297 0.306358
vt 0.207173 0.383390
vt 0.064247 0.389807
vt 0.120294 0.720700
vt 0.000329 0.633539
vt 0.120294 0.594561
vt 0.000329 0.759680
vt 0.805477 0.577544
vt 0.759655 0.436517
vt 0.879619 0.475497
vt 0.685511 0.538565
vt 0.675523 0.409180
vt 0.046152 0.492513
vt 0.120294 0.390464
vt 0.780813 0.048006
vt 0.880011 0.128166
vt 0.884235 0.018368
vt 0.240258 0.633539
vt 0.240259 0.759680
vt 0.000329 0.261809
vt 0.231589 0.251423
vt 0.335012 0.312214
vt 0.575441 0.899712
vt 0.674865 0.914944
vt 0.446827 0.923245
vt 0.335669 0.908440
vt 0.662523 0.000329
vt 0.446827 0.665884
vt 0.335669 0.651079
vt 0.575441 0.642351
vt 0.646203 0.532402
vt 0.674865 0.657583
vt 0.675523 0.738315
vt 0.778947 0.799105
vt 0.788493 0.680251
vt 0.675524 0.884632
vt 0.788493 0.929180
vt 0.884235 0.255114
vt 0.335669 0.417481
vt 0.674865 0.423985
vt 0.330788 0.185266
vt 0.613340 0.010318
vt 0.483955 0.000329
vt 0.205037 0.850088
vt 0.296885 0.891086
vt 0.296885 0.760337
vt 0.102378 0.908622
vt 0.000329 0.834478
vt 0.030810 0.960619
vt 0.102378 0.760337
vt 0.789150 0.786669
vt 0.884775 0.801687
vt 0.884775 0.680251
vt 0.847552 0.917277
vt 0.613339 0.398535
vt 0.483952 0.408523
vt 0.335012 0.075469
vt 0.385153 0.084459
vt 0.880277 0.498931
vt 0.972125 0.409180
vt 0.972125 0.539929
vt 0.385150 0.324389
vt 0.335669 0.204423
vt 0.324392 0.660875
vt 0.240259 0.759680
vt 0.324392 0.660875
vt 0.324392 0.660875
vt 0.240259 0.759680
vt 0.240258 0.633539
vt 0.240258 0.633539
vt 0.314401 0.531490
vt 0.240258 0.633539
vt 0.753479 0.649112
vt 0.753479 0.649112
vt 0.685511 0.538565
vt 0.805477 0.577544
vt 0.753479 0.649112
vt 0.805477 0.577544
vt 0.753479 0.649112
vt 0.879619 0.679594
vt 0.879619 0.679594
vt 0.805477 0.577544
vt 0.685511 0.538565
vt 0.753479 0.649112
vt 0.314401 0.531490
vt 0.324392 0.660875
vt 0.805477 0.577544
vt 0.879619 0.679594
vt 0.324392 0.660875
vt 0.240258 0.633539
vt 0.880277 0.593880
vt 0.999671 0.540586
vt 0.999671 0.641169
vt 0.314401 0.531490
vt 0.324392 0.660875
vt 0.240258 0.633539
vt 0.879619 0.679594
vt 0.753479 0.649112
vt 0.805477 0.577544
vt 0.324432 0.891743
vt 0.205037 0.945037
vt 0.324432 0.992326
vt 0.753479 0.649112
vt 0.685511 0.538565
vt 0.805477 0.577544
vt 0.324392 0.660875
vt 0.240259 0.759680
vt 0.240258 0.633539
vn 0.1024 -0.9435 0.3151
vn 0.7002 -0.6617 0.2680
vn -0.2680 -0.9435 0.1947
vn -0.2680 -0.9435 -0.1947
vn 0.1024 -0.9435 -0.3151
vn 0.9050 -0.3304 0.2680
vn 0.0247 -0.3304 0.9435
vn -0.8897 -0.3304 0.3151
vn -0.5746 -0.3304 -0.7488
vn 0.5346 -0.3304 -0.7779
vn 0.8026 -0.1256 0.5831
vn -0.3066 -0.1256 0.9435
vn -0.9921 -0.1256 0.0000
vn -0.3066 -0.1256 -0.9435
vn 0.8026 -0.1256 -0.5831
vn -0.4713 0.6617 0.5831
vn -0.7002 0.6617 -0.2680
vn 0.7240 0.6617 -0.1947
vn 0.2680 0.9435 -0.1947
vn 0.4911 0.7947 -0.3568
vn -0.1024 0.9435 -0.3151
vn -0.1876 0.7947 -0.5773
vn -0.4713 0.6617 -0.5831
vn -0.3313 0.9435 0.0000
vn -0.6071 0.7947 0.0000
vn -0.7002 0.6617 0.2680
vn -0.1024 0.9435 0.3151
vn -0.1876 0.7947 0.5773
vn 0.2680 0.9435 0.1947
vn 0.4911 0.7947 0.3568
vn 0.7240 0.6617 0.1947
vn 0.8897 0.3304 -0.3151
vn 0.7947 0.1876 -0.5773
vn 0.5746 0.3304 -0.7488
vn -0.0247 0.3304 -0.9435
vn -0.3035 0.1876 -0.9342
vn -0.5346 0.3304 -0.7779
vn -0.9050 0.3304 -0.2680
vn -0.9822 0.1876 0.0000
vn -0.9050 0.3304 0.2680
vn -0.5346 0.3304 0.7779
vn -0.3035 0.1876 0.9342
vn -0.0247 0.3304 0.9435
vn 0.5746 0.3304 0.7488
vn 0.7947 0.1876 0.5773
vn 0.8897 0.3304 0.3151
vn 0.3066 0.1256 -0.9435
vn 0.3035 -0.1876 -0.9342
vn 0.0247 -0.3304 -0.9435
vn -0.8026 0.1256 -0.5831
vn -0.7947 -0.1876 -0.5773
vn -0.8897 -0.3304 -0.3151
vn -0.8026 0.1256 0.5831
vn -0.7947 -0.1876 0.5773
vn -0.5746 -0.3304 0.7488
vn 0.3066 0.1256 0.9435
vn 0.3035 -0.1876 0.9342
vn 0.5346 -0.3304 0.7779
vn 0.9921 0.1256 0.0000
vn 0.9822 -0.1876 0.0000
vn 0.9050 -0.3304 -0.2680
vn 0.4713 -0.6617 -0.5831
vn 0.1876 -0.7947 -0.5773
vn -0.0385 -0.6617 -0.7488
vn -0.4089 -0.6617 -0.6284
vn -0.4911 -0.7947 -0.3568
vn -0.7240 -0.6617 -0.1947
vn -0.7240 -0.6617 0.1947
vn -0.4911 -0.7947 0.3568
vn -0.4089 -0.6617 0.6284
vn 0.7002 -0.6617 -0.2680
vn 0.6071 -0.7947 0.0000
vn 0.3313 -0.9435 0.0000
vn -0.0385 -0.6617 0.7488
vn 0.1876 -0.7947 0.5773
vn 0.4713 -0.6617 0.5831
vn 0.0000 0.0000 1.0000
vn 0.0385 0.6617 0.7488
vn 0.4089 0.6617 -0.6284
vn 0.0385 0.6617 -0.7488
vn 0.4089 0.6617 0.6284
usemtl Material.001
s off
f 1/1/1 14/2/1 13/3/1
f 2/4/2 14/5/2 16/6/2
f 1/1/3 13/3/3 18/7/3
f 1/1/4 18/7/4 20/8/4
f 1/1/5 20/8/5 17/9/5
f 2/4/6 16/6/6 23/10/6
f 3/11/7 15/12/7 25/13/7
f 4/14/8 19/15/8 27/16/8
f 5/17/9 21/18/9 29/19/9
f 6/20/10 22/21/10 31/22/10
f 2/4/11 23/10/11 26/23/11
f 3/11/12 25/13/12 28/24/12
f 4/14/13 27/16/13 30/25/13
f 5/17/14 29/19/14 32/26/14
f 6/27/15 31/28/15 24/29/15
f 8/30/16 34/31/16 40/32/16
f 9/33/17 35/34/17 41/35/17
f 11/36/18 37/37/18 39/38/18
f 39/39/19 42/40/19 12/41/19
f 39/39/20 37/42/20 42/40/20
f 42/43/21 41/44/21 12/45/21
f 42/43/22 36/46/22 41/44/22
f 36/46/23 9/47/23 41/44/23
f 41/48/24 40/32/24 12/41/24
f 41/48/25 35/49/25 40/32/25
f 35/50/26 8/51/26 40/52/26
f 40/32/27 38/53/27 12/41/27
f 40/32/28 34/31/28 38/53/28
f 38/53/29 39/39/29 12/41/29
f 38/53/30 33/54/30 39/39/30
f 33/55/31 11/36/31 39/38/31
f 24/56/32 37/37/32 11/36/32
f 24/56/33 31/57/33 37/37/33
f 31/22/34 10/58/34 37/59/34
f 32/26/35 36/60/35 10/58/35
f 32/26/36 29/19/36 36/60/36
f 29/19/37 9/61/37 36/60/37
f 30/25/38 35/50/38 9/62/38
f 30/25/39 27/16/39 35/50/39
f 27/16/40 8/51/40 35/50/40
f 28/24/41 34/63/41 8/64/41
f 28/24/42 25/13/42 34/63/42
f 25/13/43 7/65/43 34/63/43
f 26/66/44 33/67/44 7/65/44
f 26/23/45 23/10/45 33/55/45
f 23/10/46 11/36/46 33/55/46
f 31/22/47 32/26/47 10/58/47
f 31/22/48 22/21/48 32/26/48
f 22/21/49 5/17/49 32/26/49
f 29/68/50 30/69/50 9/70/50
f 29/68/51 21/71/51 30/69/51
f 21/71/52 4/72/52 30/69/52
f 27/16/53 28/73/53 8/51/53
f 27/16/54 19/15/54 28/73/54
f 19/74/55 3/11/55 28/24/55
f 25/13/56 26/66/56 7/65/56
f 25/13/57 15/12/57 26/66/57
f 15/12/58 2/75/58 26/66/58
f 23/10/59 24/56/59 11/36/59
f 23/10/60 16/6/60 24/56/60
f 16/6/61 6/76/61 24/56/61
f 17/9/62 22/77/62 6/78/62
f 17/9/63 20/8/63 22/77/63
f 20/79/64 5/80/64 22/81/64
f 20/82/65 21/83/65 5/84/65
f 20/82/66 18/85/66 21/83/66
f 18/86/67 4/87/67 21/88/67
f 18/86/68 19/89/68 4/87/68
f 18/7/69 13/3/69 19/90/69
f 13/3/70 3/91/70 19/90/70
f 16/6/71 17/92/71 6/76/71
f 16/93/72 14/2/72 17/9/72
f 14/2/73 1/1/73 17/9/73
f 13/94/74 15/95/74 3/96/74
f 13/3/75 14/2/75 15/97/75
f 14/2/76 2/98/76 15/97/76
f 43/99/77 55/100/77 56/101/77
f 33/54/77 43/99/77 7/102/77
f 38/53/77 44/103/77 33/54/77
f 7/102/77 45/104/77 38/53/77
f 54/105/77 65/106/77 66/107/77
f 36/46/77 46/108/77 10/109/77
f 42/43/77 47/110/77 36/46/77
f 10/109/77 48/111/77 42/43/77
f 50/112/77 63/113/77 61/114/77
f 10/109/77 49/115/77 37/116/77
f 42/43/77 50/112/77 10/109/77
f 37/116/77 51/117/77 42/43/77
f 46/108/77 58/118/77 59/119/77
f 7/102/77 52/120/77 34/31/77
f 38/53/77 53/121/77 7/102/77
f 34/31/77 54/105/77 38/53/77
f 47/110/77 60/122/77 58/118/77
f 51/117/77 62/123/77 63/113/77
f 52/120/77 64/124/77 65/106/77
f 44/103/77 57/125/77 55/100/77
f 48/111/77 59/119/77 60/122/77
f 49/115/77 61/114/77 62/123/77
f 53/121/77 66/107/77 64/124/77
f 45/104/77 56/101/77 57/125/77
f 67/126/78 68/127/78 69/128/78
f 64/124/77 67/129/77 65/106/77
f 66/107/77 68/130/77 64/124/77
f 65/106/77 69/131/77 66/107/77
f 70/132/79 71/133/79 72/134/79
f 61/114/77 70/132/77 62/123/77
f 63/113/77 71/133/77 61/114/77
f 62/123/77 72/134/77 63/113/77
f 73/135/80 74/136/80 75/137/80
f 58/118/77 73/138/77 59/119/77
f 60/122/77 74/139/77 58/118/77
f 59/119/77 75/140/77 60/122/77
f 76/141/81 77/142/81 78/143/81
f 55/100/77 76/141/77 56/101/77
f 57/125/77 77/142/77 55/100/77
f 56/101/77 78/143/77 57/125/77
f 43/99/77 44/103/77 55/100/77
f 33/54/77 44/103/77 43/99/77
f 38/53/77 45/104/77 44/103/77
f 7/102/77 43/99/77 45/104/77
f 54/105/77 52/120/77 65/106/77
f 36/46/77 47/110/77 46/108/77
f 42/43/77 48/111/77 47/110/77
f 10/109/77 46/108/77 48/111/77
f 50/112/77 51/117/77 63/113/77
f 10/109/77 50/112/77 49/115/77
f 42/43/77 51/117/77 50/112/77
f 37/116/77 49/115/77 51/117/77
f 46/108/77 47/110/77 58/118/77
f 7/102/77 53/121/77 52/120/77
f 38/53/77 54/105/77 53/121/77
f 34/31/77 52/120/77 54/105/77
f 47/110/77 48/111/77 60/122/77
f 51/117/77 49/115/77 62/123/77
f 52/120/77 53/121/77 64/124/77
f 44/103/77 45/104/77 57/125/77
f 48/111/77 46/108/77 59/119/77
f 49/115/77 50/112/77 61/114/77
f 53/121/77 54/105/77 66/107/77
f 45/104/77 43/99/77 56/101/77
f 64/124/77 68/130/77 67/129/77
f 66/107/77 69/131/77 68/130/77
f 65/106/77 67/129/77 69/131/77
f 61/114/77 71/133/77 70/132/77
f 63/113/77 72/134/77 71/133/77
f 62/123/77 70/132/77 72/134/77
f 58/118/77 74/139/77 73/138/77
f 60/122/77 75/140/77 74/139/77
f 59/119/77 73/138/77 75/140/77
f 55/100/77 77/142/77 76/141/77
f 57/125/77 78/143/77 77/142/77
f 56/101/77 76/141/77 78/143/77
