# Blender v2.79 (sub 0) OBJ File: ''
# www.blender.org
mtllib untitled.mtl
o Suzanne
v -1.476856 2.913304 -0.799753
v -0.889078 2.913304 -0.990737
v -1.051532 3.238221 -0.490737
v -0.463752 3.238222 -1.299748
v -0.889078 2.913304 -1.608760
v -1.840130 2.913306 -1.299748
v -2.002590 3.238222 -0.799752
v -1.476856 2.913304 -1.799744
v -2.002590 3.238222 -1.799745
v -1.051532 3.238221 -2.108760
v -0.363342 3.763958 -0.990736
v -0.363342 3.763958 -1.608761
v -1.314400 3.763958 -0.299748
v -0.726615 3.763958 -0.490732
v -2.265458 3.763958 -0.990736
v -1.902186 3.763958 -0.490732
v -1.902186 3.763958 -2.108765
v -2.265458 3.763958 -1.608761
v -0.726615 3.763958 -2.108765
v -1.314400 3.763958 -2.299748
v -0.626211 4.289694 -0.799752
v -1.577269 4.289696 -0.490737
v -2.165048 4.289694 -1.299748
v -1.577269 4.289696 -2.108760
v -0.626211 4.289694 -1.799745
v -1.151945 4.614613 -0.799753
v -0.788671 4.614610 -1.299748
v -1.739723 4.614613 -0.990737
v -1.739723 4.614613 -1.608760
v -1.151945 4.614613 -1.799744
v -1.314400 4.763958 -1.299748
v -0.419974 4.211174 -1.299748
v -1.038012 4.211178 -2.150398
v -2.038008 4.211178 -1.825474
v -2.038008 4.211178 -0.774023
v -1.038012 4.211178 -0.449099
v -0.590793 3.316739 -1.825474
v -1.590788 3.316738 -2.150398
v -2.208827 3.316743 -1.299748
v -1.590788 3.316738 -0.449099
v -0.590793 3.316739 -0.774023
v -1.314400 2.763958 -1.299748
vt 0.000000 0.000000
vt 0.000000 0.000000
vt 0.000000 0.000000
vt 0.346005 0.000514
vt 0.505392 0.092534
vt 0.346006 0.184558
vt 0.682878 0.830124
vt 0.578815 0.981924
vt 0.520126 0.830124
vt 0.000000 0.000000
vt 0.000000 0.000000
vt 0.000000 0.000000
vt 0.999486 0.829093
vt 0.847686 0.725033
vt 0.999486 0.666343
vt 0.000000 0.000000
vt 0.000000 0.000000
vt 0.000000 0.000000
vt 0.530046 0.800581
vt 0.346005 0.800581
vt 0.438026 0.666343
vt 0.346005 0.801609
vt 0.508757 0.801609
vt 0.450065 0.953410
vt 0.346005 0.530046
vt 0.438026 0.370660
vt 0.530048 0.530046
vt 0.000514 0.617036
vt 0.184557 0.617036
vt 0.092536 0.751274
vt 0.805472 0.059206
vt 0.957272 0.000514
vt 0.957272 0.163266
vt 0.346005 0.277611
vt 0.505393 0.185588
vt 0.505393 0.369631
vt 0.742595 0.819174
vt 0.846658 0.970974
vt 0.683906 0.970974
vt 0.000000 0.000000
vt 0.000000 0.000000
vt 0.857611 0.513511
vt 0.753547 0.665313
vt 0.694859 0.513511
vt 0.000000 0.000000
vt 0.000000 0.000000
vt 0.000000 0.000000
vt 0.000000 0.000000
vt 0.787969 0.666343
vt 0.846658 0.818146
vt 0.683906 0.818146
vt 0.000514 0.160932
vt 0.184559 0.160932
vt 0.092535 0.320321
vt 0.640661 0.185588
vt 0.640661 0.369634
vt 0.506421 0.277613
vt 0.820211 0.353097
vt 0.878899 0.504899
vt 0.716148 0.504899
vt 0.000514 0.000514
vt 0.184560 0.000515
vt 0.092537 0.159903
vt 0.319829 0.370662
vt 0.319829 0.554708
vt 0.185588 0.462686
vt 0.000000 0.000000
vt 0.000000 0.000000
vt 0.000000 0.000000
vt 0.000000 0.000000
vt 0.745751 0.000514
vt 0.804443 0.152316
vt 0.641689 0.152316
vt 0.185588 0.000514
vt 0.344977 0.092537
vt 0.185588 0.184560
vt 0.337390 0.614429
vt 0.185588 0.718491
vt 0.185588 0.555737
vt 0.506421 0.000514
vt 0.640660 0.092534
vt 0.506421 0.184560
vt 0.185588 0.277613
vt 0.344976 0.185588
vt 0.344976 0.369634
vt 0.531075 0.666343
vt 0.682878 0.770402
vt 0.531075 0.829096
vt 0.000000 0.000000
vt 0.000000 0.000000
vt 0.000514 0.480738
vt 0.092535 0.321349
vt 0.184556 0.480738
vt 0.805472 0.185586
vt 0.957272 0.289644
vt 0.805472 0.348337
vt 0.000000 0.000000
vt 0.000000 0.000000
vt 0.000000 0.000000
vt 0.000000 0.000000
vt 0.000000 0.000000
vt 0.000000 0.000000
vt 0.000000 0.000000
vt 0.000000 0.000000
vt 0.000000 0.000000
vt 0.000000 0.000000
vt 0.623098 0.370660
vt 0.715119 0.504899
vt 0.531076 0.504899
vt 0.185589 0.882271
vt 0.185588 0.719519
vt 0.337389 0.823579
vt 0.438027 0.531075
vt 0.530050 0.665314
vt 0.346005 0.665314
vt 0.092538 0.481766
vt 0.184559 0.616008
vt 0.000514 0.616008
vt 0.804444 0.185586
vt 0.745751 0.337388
vt 0.641690 0.185586
vt 0.531079 0.513511
vt 0.693830 0.513511
vt 0.589767 0.665314
vt 0.000514 0.752302
vt 0.163264 0.752302
vt 0.059205 0.904105
vn 0.4089 0.6617 -0.6284
vn 0.4911 0.7947 -0.3568
vn 0.2680 0.9435 -0.1947
vn -0.4713 0.6617 -0.5831
vn -0.1876 0.7947 -0.5773
vn -0.1024 0.9435 -0.3151
vn -0.7002 0.6617 0.2680
vn -0.6071 0.7947 0.0000
vn -0.3313 0.9435 0.0000
vn 0.0385 0.6617 0.7488
vn -0.1876 0.7947 0.5773
vn -0.1024 0.9435 0.3151
vn 0.7240 0.6617 0.1947
vn 0.4911 0.7947 0.3568
vn 0.2680 0.9435 0.1947
vn 0.5746 0.3304 -0.7488
vn 0.7947 0.1876 -0.5773
vn 0.8897 0.3304 -0.3151
vn -0.5346 0.3304 -0.7779
vn -0.3035 0.1876 -0.9342
vn -0.0247 0.3304 -0.9435
vn -0.9050 0.3304 0.2680
vn -0.9822 0.1876 0.0000
vn -0.9050 0.3304 -0.2680
vn -0.0247 0.3304 0.9435
vn -0.3035 0.1876 0.9342
vn -0.5346 0.3304 0.7779
vn 0.8897 0.3304 0.3151
vn 0.7947 0.1876 0.5773
vn 0.5746 0.3304 0.7488
vn 0.0247 -0.3304 -0.9435
vn 0.3035 -0.1876 -0.9342
vn 0.3066 0.1256 -0.9435
vn -0.8897 -0.3304 -0.3151
vn -0.7947 -0.1876 -0.5773
vn -0.8026 0.1256 -0.5831
vn -0.5746 -0.3304 0.7488
vn -0.7947 -0.1876 0.5773
vn -0.8026 0.1256 0.5831
vn 0.5346 -0.3304 0.7779
vn 0.3035 -0.1876 0.9342
vn 0.3066 0.1256 0.9435
vn 0.9050 -0.3304 -0.2680
vn 0.9822 -0.1876 0.0000
vn 0.9921 0.1256 0.0000
vn -0.0385 -0.6617 -0.7488
vn 0.1876 -0.7947 -0.5773
vn 0.4713 -0.6617 -0.5831
vn -0.7240 -0.6617 -0.1947
vn -0.4911 -0.7947 -0.3568
vn -0.4089 -0.6617 -0.6284
vn -0.4089 -0.6617 0.6284
vn -0.4911 -0.7947 0.3568
vn -0.7240 -0.6617 0.1947
vn 0.3313 -0.9435 0.0000
vn 0.6071 -0.7947 0.0000
vn 0.7002 -0.6617 -0.2680
vn 0.4713 -0.6617 0.5831
vn 0.1876 -0.7947 0.5773
vn -0.0385 -0.6617 0.7488
vn 0.7240 0.6617 -0.1947
vn 0.0385 0.6617 -0.7488
vn -0.7002 0.6617 -0.2680
vn -0.4713 0.6617 0.5831
vn 0.4089 0.6617 0.6284
vn 0.8026 -0.1256 -0.5831
vn -0.3066 -0.1256 -0.9435
vn -0.9921 -0.1256 0.0000
vn -0.3066 -0.1256 0.9435
vn 0.8026 -0.1256 0.5831
vn 0.5346 -0.3304 -0.7779
vn -0.5746 -0.3304 -0.7488
vn -0.8897 -0.3304 0.3151
vn 0.0247 -0.3304 0.9435
vn 0.9050 -0.3304 0.2680
vn 0.1024 -0.9435 -0.3151
vn -0.2680 -0.9435 -0.1947
vn -0.2680 -0.9435 0.1947
vn 0.7002 -0.6617 0.2680
vn 0.1024 -0.9435 0.3151
usemtl None
s off
f 25/1/1 33/2/1 30/3/1
f 27/4/2 25/5/2 30/6/2
f 27/7/3 30/8/3 31/9/3
f 24/10/4 34/11/4 29/12/4
f 30/3/5 24/10/5 29/12/5
f 30/13/6 29/14/6 31/15/6
f 23/16/7 35/17/7 28/18/7
f 29/12/8 23/16/8 28/18/8
f 29/19/9 28/20/9 31/21/9
f 22/22/10 36/23/10 26/24/10
f 28/25/11 22/26/11 26/27/11
f 28/28/12 26/29/12 31/30/12
f 21/31/13 32/32/13 27/33/13
f 26/34/14 21/35/14 27/36/14
f 26/37/15 27/38/15 31/39/15
f 19/40/16 33/2/16 25/1/16
f 12/41/17 19/40/17 25/1/17
f 12/42/18 25/43/18 32/44/18
f 17/45/19 34/11/19 24/10/19
f 20/46/20 17/45/20 24/10/20
f 20/46/21 24/10/21 33/2/21
f 15/47/22 35/17/22 23/16/22
f 18/48/23 15/47/23 23/16/23
f 18/48/24 23/16/24 34/11/24
f 13/49/25 36/50/25 22/51/25
f 16/52/26 13/53/26 22/54/26
f 16/55/27 22/56/27 35/57/27
f 11/58/28 32/59/28 21/60/28
f 14/61/29 11/62/29 21/63/29
f 14/64/30 21/65/30 36/66/30
f 10/67/31 38/68/31 20/46/31
f 19/40/32 10/67/32 20/46/32
f 19/40/33 20/46/33 33/2/33
f 9/69/34 39/70/34 18/48/34
f 17/45/35 9/69/35 18/48/35
f 17/45/36 18/48/36 34/11/36
f 7/71/37 40/72/37 16/73/37
f 15/74/38 7/75/38 16/76/38
f 15/77/39 16/78/39 35/79/39
f 3/80/40 41/81/40 14/82/40
f 13/83/41 3/84/41 14/85/41
f 13/86/42 14/87/42 36/88/42
f 4/89/43 37/90/43 12/41/43
f 11/91/44 4/92/44 12/93/44
f 11/94/45 12/95/45 32/96/45
f 8/97/46 38/68/46 10/67/46
f 5/98/47 8/97/47 10/67/47
f 5/98/48 10/67/48 37/90/48
f 6/99/49 39/70/49 9/69/49
f 8/97/50 6/99/50 9/69/50
f 8/97/51 9/69/51 38/68/51
f 1/100/52 40/101/52 7/102/52
f 6/99/53 1/100/53 7/102/53
f 6/99/54 7/102/54 39/70/54
f 2/103/55 42/104/55 5/98/55
f 4/89/56 2/103/56 5/98/56
f 4/89/57 5/98/57 37/90/57
f 2/103/58 41/105/58 3/106/58
f 1/100/59 2/103/59 3/106/59
f 1/100/60 3/106/60 40/101/60
f 32/107/61 25/108/61 27/109/61
f 33/2/62 24/10/62 30/3/62
f 34/11/63 23/16/63 29/12/63
f 35/110/64 22/111/64 28/112/64
f 36/113/65 21/114/65 26/115/65
f 37/90/66 19/40/66 12/41/66
f 38/68/67 17/45/67 20/46/67
f 39/70/68 15/47/68 18/48/68
f 40/116/69 13/117/69 16/118/69
f 41/119/70 11/120/70 14/121/70
f 37/90/71 10/67/71 19/40/71
f 38/68/72 9/69/72 17/45/72
f 39/70/73 7/102/73 15/47/73
f 40/122/74 3/123/74 13/124/74
f 41/125/75 4/126/75 11/127/75
f 42/104/76 8/97/76 5/98/76
f 42/104/77 6/99/77 8/97/77
f 42/104/78 1/100/78 6/99/78
f 41/105/79 2/103/79 4/89/79
f 42/104/80 2/103/80 1/100/80
